<?xml version="1.0" encoding="UTF-8" standalone="no"?>
<svg
   viewBox="0 0 4533.3335 2666.6667"
   height="2666.6667"
   width="4533.3335"
   xml:space="preserve"
   id="svg2"
   version="1.1"
   sodipodi:docname="Palmeres.svg"
   inkscape:version="1.3.2 (091e20e, 2023-11-25)"
   xmlns:inkscape="http://www.inkscape.org/namespaces/inkscape"
   xmlns:sodipodi="http://sodipodi.sourceforge.net/DTD/sodipodi-0.dtd"
   xmlns="http://www.w3.org/2000/svg"
   xmlns:svg="http://www.w3.org/2000/svg"
   xmlns:rdf="http://www.w3.org/1999/02/22-rdf-syntax-ns#"
   xmlns:cc="http://creativecommons.org/ns#"
   xmlns:dc="http://purl.org/dc/elements/1.1/"><sodipodi:namedview
     id="namedview1"
     pagecolor="#ffffff"
     bordercolor="#999999"
     borderopacity="1"
     inkscape:showpageshadow="2"
     inkscape:pageopacity="0"
     inkscape:pagecheckerboard="0"
     inkscape:deskcolor="#d1d1d1"
     inkscape:zoom="0.19235293"
     inkscape:cx="1933.945"
     inkscape:cy="1801.3762"
     inkscape:window-width="2240"
     inkscape:window-height="1138"
     inkscape:window-x="0"
     inkscape:window-y="25"
     inkscape:window-maximized="1"
     inkscape:current-layer="g12" /><metadata
     id="metadata8"><rdf:RDF><cc:Work
         rdf:about=""><dc:format>image/svg+xml</dc:format><dc:type
           rdf:resource="http://purl.org/dc/dcmitype/StillImage" /></cc:Work></rdf:RDF></metadata><defs
     id="defs6" /><g
     transform="matrix(1.3333333,0,0,-1.3333333,0,2666.6667)"
     id="g10"><g
       transform="scale(0.1)"
       id="g12"><g
         transform="matrix(3.1032719,0,0,2.947429,-33758.273,2041.1044)"
         id="g792"
         style="fill:#e3dbdb"><path
           id="path794"
           style="fill:#e3dbdb;fill-opacity:1;fill-rule:nonzero;stroke:none"
           d="m 16293.8,2532.25 c 5.9,89.43 6.2,179.2 0.5,268.63 -5.8,91.51 -17.7,182.75 -36.2,272.58 -18,86.95 -42.4,172.61 -73.9,255.62 -32.1,84.14 -70.9,165.74 -117.9,242.61 -46.6,76.48 -101.1,148.51 -162.7,213.56 -7.6,8.11 -15.4,16.05 -23.2,23.93 -10.6,10.59 -30,11.38 -40.5,0 -10.4,-11.43 -11.3,-29.11 0,-40.43 31.1,-31.15 60.5,-63.92 88,-98.22 3.2,-4.05 6.4,-8.11 9.6,-12.16 0.8,-1.02 1.6,-2.09 2.5,-3.1 2.3,-3.04 -3.3,4.28 -1,1.18 1.8,-2.31 3.6,-4.62 5.4,-6.93 6.6,-8.78 13.1,-17.62 19.6,-26.58 12.7,-17.91 25.1,-36.1 37,-54.57 23.4,-36.49 45,-74.17 64.8,-112.69 10.1,-19.66 19.7,-39.48 28.9,-59.53 4.4,-9.74 8.8,-19.54 13,-29.4 1,-2.42 2.1,-4.78 3.1,-7.2 1.7,-3.89 -2.8,6.64 -0.3,0.56 0.6,-1.18 1.1,-2.42 1.5,-3.61 2.2,-5.12 4.2,-10.24 6.3,-15.37 32.9,-81.66 58.6,-166.14 78,-252.02 9.8,-43.42 17.9,-87.18 24.5,-131.22 0.7,-5.18 1.5,-10.42 2.2,-15.66 0.4,-2.64 0.7,-5.23 1.1,-7.88 0.2,-1.07 0.7,-5.46 0.2,-1.07 -0.6,4.68 0.1,-1.13 0.2,-2.14 1.5,-11.09 2.8,-22.24 4.1,-33.45 2.5,-22.3 4.7,-44.72 6.5,-67.13 6.9,-88.42 7.9,-177.34 3.5,-265.93 -0.6,-10.76 -1.2,-21.57 -2,-32.38 -0.9,-14.93 13.9,-29.23 28.7,-28.56 16.3,0.74 27.5,12.56 28.5,28.56" /></g><g
         transform="matrix(3.2728136,0,0,3.1084565,-33758.273,2041.1044)"
         id="g796"
         style="fill:#ffb380"><path
           id="path798"
           style="fill:#ffb380;fill-opacity:1;fill-rule:nonzero;stroke:none"
           d="m 15785.6,2293.03 c 22.9,87.15 45.9,174.24 68.8,261.34 22.9,86.61 45.7,173.23 68.5,259.84 10.9,41.39 21.9,82.77 34.6,123.67 6.2,20.24 12.9,40.37 20.1,60.29 3.7,10.15 7.5,20.19 11.5,30.22 1.9,4.81 3.8,9.72 5.9,14.42 -1.9,-4.32 -0.1,-0.16 0.8,1.77 1.2,2.72 2.3,5.44 3.6,8.17 32.1,72.35 74.3,139.74 121.3,203.29 5.9,8.06 11.9,16.07 18,24.03 0.9,1.17 5.2,7.15 1.5,1.87 1.2,1.7 2.5,3.25 3.8,4.91 3.2,4.11 6.4,8.17 9.6,12.23 12.5,15.7 25.2,31.24 38.1,46.67 25.5,30.54 51.6,60.61 77.9,90.51 6.4,7.21 12.8,14.47 19.1,21.73 9.4,10.63 11.3,28.04 0,38.35 -10.2,9.39 -28.3,11.37 -38.3,0 -53.9,-61.2 -107.5,-122.61 -157.2,-187.28 -48.4,-62.95 -92.8,-129.38 -127.6,-200.83 -38.1,-78.18 -63.3,-161.32 -85.8,-245.05 -23.2,-86.67 -45.8,-173.55 -68.7,-260.27 -23,-87.52 -46.1,-174.99 -69.1,-262.51 -2.9,-10.95 -5.8,-21.95 -8.7,-32.95 -3.6,-13.67 4.6,-30.07 18.9,-33.32 14.2,-3.26 29.5,4.27 33.4,18.9" /></g><g
         transform="matrix(3.392634,0,0,3.2222597,-33758.273,2041.1044)"
         id="g800"><path
           id="path802"
           style="fill:#f4e3d7;fill-opacity:1;fill-rule:nonzero;stroke:none"
           d="m 15297.9,2269.95 c 3.4,10.1 7,20.14 10.9,30.08 0.9,2.22 1.8,4.49 2.7,6.75 0.6,1.34 1.1,2.68 1.7,4.02 -3,-7.52 -1.1,-2.53 -0.4,-0.93 2.2,4.9 4.3,9.79 6.6,14.63 8.8,18.86 18.6,37.3 29.5,55.12 11,18.24 23.1,35.8 36,52.85 3.2,4.13 -3.1,-4.06 -1,-1.28 0.8,0.98 1.5,1.95 2.3,2.88 1.5,1.91 3,3.81 4.5,5.67 3.7,4.53 7.4,9.01 11.2,13.44 6.7,7.73 13.5,15.3 20.5,22.72 14.7,15.45 30.2,30.14 46.4,43.99 3.7,3.15 7.4,6.24 11.2,9.27 2.3,1.86 4.5,3.66 6.8,5.47 0.8,0.61 1.5,1.18 2.3,1.8 3.6,2.78 -5.2,-3.97 0.5,0.31 8.3,6.28 16.7,12.36 25.3,18.23 17.4,11.8 35.4,22.67 54,32.51 9.3,5 18.9,9.68 28.5,14.11 4.4,2.01 8.8,3.97 13.2,5.88 5,2.16 -5.9,-2.43 -0.9,-0.36 0.9,0.36 1.8,0.72 2.6,1.08 3,1.18 5.9,2.37 8.8,3.5 19.5,7.62 39.5,14.12 59.8,19.37 10.2,2.63 20.6,5 31,7.01 4.7,0.92 9.5,1.8 14.2,2.57 2.5,0.41 4.8,0.77 7.2,1.13 1.4,0.21 2.9,0.42 4.3,0.62 5.2,0.78 -6.8,-0.87 -0.4,-0.05 41.2,5.26 83,5.15 124.2,-0.05 1.1,-0.16 2.3,-0.31 3.5,-0.47 -8.5,1.04 -3.1,0.42 -1.3,0.16 2.4,-0.31 4.8,-0.67 7.1,-1.03 5.2,-0.82 10.3,-1.75 15.5,-2.73 10.3,-1.91 20.6,-4.17 30.7,-6.75 20.2,-5.05 40,-11.28 59.4,-18.65 4.7,-1.75 9.4,-3.6 14.1,-5.51 1.3,-0.56 2.6,-1.13 3.9,-1.65 -0.2,0.11 -6.2,2.63 -2.2,0.93 2.6,-1.13 5.2,-2.27 7.8,-3.45 9.6,-4.28 19,-8.81 28.4,-13.65 18.6,-9.69 36.6,-20.4 54,-32.15 8.3,-5.61 16.3,-11.48 24.3,-17.51 4.3,-3.2 -4.9,3.91 -0.8,0.62 1,-0.72 1.9,-1.45 2.9,-2.22 2,-1.6 4,-3.24 6.1,-4.89 4,-3.3 8,-6.65 12,-10.1 15.7,-13.65 30.7,-28.28 44.6,-43.73 6.7,-7.42 13.1,-14.99 19.3,-22.77 0.9,-1.08 1.7,-2.22 2.6,-3.35 3.3,-4.17 -3.8,5.05 -0.6,0.82 1.4,-1.9 2.9,-3.81 4.3,-5.71 3.1,-4.18 6.1,-8.4 9,-12.68 11.9,-17.2 22.6,-35.13 31.9,-53.78 4.6,-8.91 8.7,-18.03 12.6,-27.25 2.4,-5.56 10.1,-10.46 15.7,-12 6.2,-1.7 14.5,-0.93 20.1,2.63 5.6,3.6 10.5,8.96 12,15.66 1.7,7.31 0.3,13.29 -2.6,20.14 -34.5,81.44 -92.7,150.42 -162.7,203.79 -68.4,52.18 -150.3,88.39 -235,104.05 -87.7,16.23 -178,10.93 -262.9,-16.94 -85.2,-27.97 -163.2,-75.83 -228.1,-137.65 -64.8,-61.76 -115.7,-137.28 -148.7,-220.53 -3.9,-9.94 -7.5,-19.99 -10.8,-30.08 -4.4,-13.04 5,-29.16 18.3,-32.2 14.3,-3.29 27.5,4.38 32.1,18.29" /></g><g
         transform="matrix(3.1799248,0,0,3.0202325,-33758.273,2041.1044)"
         id="g804"><path
           id="path806"
           style="fill:#566f3e;fill-opacity:1;fill-rule:nonzero;stroke:none"
           d="m 16288,2423.99 c 12,0 12,18.58 0,18.58 -12,0 -12,-18.58 0,-18.58" /></g><g
         transform="matrix(3.386622,0,0,3.2165496,-33758.273,2041.1044)"
         id="g808"
         style="fill:#de87cd"><path
           id="path810"
           style="fill:#de87cd;fill-opacity:1;fill-rule:nonzero;stroke:none"
           d="m 14427.7,3842.38 c 37.8,-94.96 78.2,-188.93 121,-281.77 54.5,-118.18 114.3,-236.66 205.1,-329.86 99.9,-102.54 231.1,-168.08 361.9,-226.24 -335,113.53 -692.2,161.27 -1045.2,139.54 311.8,-152.34 670.9,-172.67 1017.9,-163.74 -141.2,-116.94 -234,-290.49 -252.8,-472.76 2.5,23.74 97,95.83 116.2,117.92 37.5,43.2 72.3,88.76 104,136.34 60.8,91.19 95,193.68 147.5,286.93 104.4,-258.85 451.4,-434.1 710.4,-494.33 -201.3,204.82 -437.2,375.43 -694.7,502.53 338,-152.23 728.6,-226.29 1081,-111.21 -322.1,133.4 -681.8,131.75 -1030.4,128.04 366.1,38.6 713.2,232.32 938.2,523.64 -313.8,-144.34 -628.6,-289.3 -920.3,-474.31 269.1,272.22 545.2,559.04 666.2,922.14 -240.5,-266.03 -539.1,-493.61 -708.5,-805.51 152.5,333.01 201,713.24 135,1073.65 -124,-383.95 -248,-780.48 -215.5,-1182.64 -49.9,185.31 -56,379.61 -96.5,567.19 -40.5,187.54 -124.4,378.32 -285.4,482.67 62.4,-182.02 89.4,-373.88 132.6,-561.42 43.1,-187.53 105.1,-375.99 226,-525.7 -159.8,69.98 -288.4,196.15 -397.7,332.03 -109.3,135.93 -203.1,284.03 -316,416.87" /></g><g
         transform="matrix(3.1327901,0,0,2.9754648,-33758.273,2041.1044)"
         id="g812"
         style="fill:#e9afdd"><path
           id="path814"
           style="fill:#e9afdd;fill-opacity:1;fill-rule:nonzero;stroke:none"
           d="m 15741.8,3652.61 c 198.9,268.34 313.1,598.42 322.5,932.25 -126.8,-100.3 -188.8,-261.25 -226.6,-418.45 -37.9,-157.15 -58,-320.61 -126.2,-467.22 76.3,358.77 63.6,736.16 -36.9,1088.95 -80.6,-347.43 45.3,-709.54 23.9,-1065.63 -58.8,299.41 -153.9,591.67 -282.6,868.26 -35.4,76.1 -74.5,152.63 -135.5,210.15 -4.4,-86.36 26,-170.26 56.6,-251.15 54.9,-144.99 112,-289.2 169,-433.35 22.8,-57.4 45.5,-114.86 68.2,-172.27 -80.1,161.12 -186.9,310.34 -296.2,454.27 -99.2,130.77 -201.5,259.24 -306.7,385.32 19.4,-128.14 78,-246.86 142.1,-359.49 59.1,-103.87 123.6,-204.68 193.1,-301.92 -62.3,68.23 -127.6,134.17 -199.5,195.42 -117,99.58 -242.9,188.73 -377.8,262.42 -13.8,12.72 -27.5,25.44 -41.4,38.16 79.4,-138.85 175.5,-267.72 282.5,-386.43 94.8,-105.16 199.8,-195.2 307.1,-282.39 -114.9,80.44 -234.8,153.91 -358.7,219.8 -114.4,60.92 -234.7,116.09 -363.3,131.88 129,-101.59 260.3,-200.22 393.8,-295.78 147,-105.11 299.1,-207.64 462.5,-283.17 -58.1,21.08 -116.1,42.17 -174.2,63.26 -145.7,52.99 -291.4,105.94 -437.9,156.7 -81.7,28.34 -166.4,56.29 -252.6,49.54 59.2,-59.41 136.8,-96.34 213.8,-129.54 280.2,-120.78 575,-207.58 875.9,-257.9 -355.3,-31.52 -720.8,84.13 -1065.9,-6.3 355.5,-90.43 733.1,-92.5 1089.6,-6.08 -144.6,-72.3 -307.4,-97.01 -463.5,-139.3 -156,-42.29 -315.2,-108.78 -411.9,-238.38 333.4,18.86 660.2,142.37 922.8,348.72 -177.2,-164.68 -361.3,-340.07 -434.3,-570.69 183.3,143.98 306.5,349.17 425.5,549.61 -21.5,-144.49 -14,-293.1 21.6,-434.75 -6.9,27.23 43.7,121.34 49.7,155.43 9.3,53.77 11.4,108.83 6.4,163.22 -5.9,65.44 -21,131.27 -48.8,190.46 49,-16.46 101.2,-25.38 153,-28.62 54.5,-3.4 109.4,0.17 163,11.05 33.8,6.86 126.5,60.14 153.9,54.05 -142.5,31.63 -291.4,34.82 -435.1,9.27 196.9,124.68 398.5,253.6 537.3,440.88 -228.4,-79.5 -398.5,-268.5 -558.2,-450.26" /></g><g
         transform="matrix(2.984203,0,0,2.8343396,-33758.273,2041.1044)"
         id="g816"
         style="fill:#ffccaa"><path
           id="path818"
           style="fill:#ffccaa;fill-opacity:1;fill-rule:nonzero;stroke:none"
           d="m 15835.4,3035.37 c -119.1,329.78 -341.4,621.43 -627.9,823.59 14.1,-169.14 118.9,-316.83 234.3,-441.28 115.4,-124.39 246.7,-236.95 335.3,-381.72 -269.4,275.19 -606.9,483.27 -973.6,600.4 256.9,-272.38 646.7,-372.65 945.5,-598.24 -295.9,122.52 -606.6,209.14 -923.3,257.34 -87,13.29 -176.7,23.54 -262.4,3.57 73,-53.94 164,-76.14 252.5,-96.34 158.6,-36.31 317.8,-70.16 477.1,-104.01 63.3,-13.47 126.8,-26.94 190.2,-40.47 -187.4,23.54 -380,16.87 -569.3,4.98 -172,-10.83 -343.8,-25.65 -515.1,-44.39 123.4,-57.45 261.2,-75.2 396.8,-84.63 125.3,-8.66 250.9,-10.83 376.3,-6.56 -95.9,-14.81 -191.5,-33.61 -286.8,-60.9 -155,-44.45 -306.2,-102.78 -449,-177.8 -19.1,-4.69 -38.2,-9.37 -57.3,-14.06 167.5,-11.3 336,-2.11 501.9,22.49 147.1,21.79 286.8,61.26 425.4,104.54 -137.2,-53.88 -271,-115.96 -400.6,-186 -119.7,-64.66 -237.9,-137.8 -326.4,-241.11 163.8,53.76 326.3,111.27 487.4,172.53 177.3,67.41 355.4,140.96 516.3,239.82 -52.2,-38.48 -104.4,-76.95 -156.5,-115.43 -131,-96.69 -261.9,-193.32 -391.5,-291.94 -72.2,-54.99 -145.9,-112.85 -190,-192.15 86.3,17.28 163.7,63.72 237.5,111.74 268.4,174.81 515.6,382.19 734.4,616.09 -178.9,-329.01 -492.4,-581.42 -613.7,-935.67 285.5,258.32 506.7,587.28 638.3,949.2 -20.8,-168.43 -93.8,-325.2 -147.5,-486.2 -53.7,-160.99 -88,-338.79 -30.9,-498.61 177.2,302.48 259.1,659.96 231.2,1009.41 41.1,-250.6 87.5,-513.49 246.8,-711.26 -19.5,243.92 -127.4,470.79 -233.5,691.35 113.9,-102.72 248.2,-182.61 392.7,-233.73 -27.8,9.84 -80.6,108.81 -107,133.76 -41.6,39.41 -88.6,73.2 -139,100.44 -60.7,32.79 -127,57.91 -194.9,67.93 42.9,33.38 81,73.79 113.9,117.18 34.6,45.63 63.4,95.82 85,148.93 13.7,33.62 20.9,145.59 42.2,166.03 -110.5,-106.29 -199.7,-234.61 -260.9,-375.16 5.4,244.68 9.8,495.86 -73.3,726.02 -63.3,-245.97 3.2,-504.47 69.4,-749.68" /></g><g
         transform="matrix(3.4934922,0,0,3.3180529,-33758.273,2041.1044)"
         id="g820"
         style="fill:#f4d7e3"><path
           id="path822"
           style="fill:#f4d7e3;fill-opacity:1;fill-rule:nonzero;stroke:none"
           d="m 15280.8,3102.75 c 244.9,-172.35 543.3,-267.44 842.9,-268.5 -92.8,111.41 -238.5,163.44 -380.2,193.91 -141.8,30.46 -288.7,44.92 -421.7,102.8 323.4,-60.53 661.4,-40.72 975.5,57.03 -313.3,64.69 -635.1,-56.18 -954.8,-44.82 267.1,59.28 527,150.98 772.2,272.44 67.3,33.37 135.1,70.14 185.3,126.12 -77.5,2 -152,-27.06 -223.9,-56.28 -128.7,-52.43 -256.8,-106.76 -384.7,-161.09 -51,-21.66 -102,-43.27 -153,-64.93 142.7,75.39 274.1,174.39 400.8,275.5 115,91.9 227.9,186.39 338.6,283.55 -114.4,-20.26 -219.6,-75.39 -319.1,-135.32 -91.9,-55.29 -180.8,-115.32 -266.5,-179.75 59.9,57.33 117.5,117.36 170.9,183.15 86.6,107.05 163.8,221.91 226.9,344.43 11.1,12.61 22.2,25.26 33.3,37.92 -122.8,-74.19 -236.2,-163.19 -340.2,-261.74 -92.2,-87.3 -170.7,-183.4 -246.4,-281.55 69.6,104.86 132.8,213.92 189.1,326.42 52.1,103.91 98.9,212.97 110.3,328.63 -88.3,-117.86 -173.8,-237.73 -256.5,-359.54 -91,-134.07 -179.6,-272.8 -243.7,-420.88 17.6,52.53 35.3,105.01 52.9,157.54 44.2,131.77 88.5,263.59 130.8,396.06 23.6,73.89 46.8,150.43 38.9,227.57 -52,-54.38 -83.4,-124.82 -111.5,-194.55 -102.1,-253.84 -173.4,-520.03 -211.9,-790.92 -36,317.82 59.6,648.04 -29.1,955.4 -73.2,-320.72 -66.8,-659.3 18.5,-976.96 -67.9,128.06 -93.7,273.49 -135,412.46 -41.4,138.93 -104.5,280.15 -222.8,364 24.3,-298.51 142.2,-588.72 332.9,-819.59 -151.5,155.18 -312.8,316.42 -521.2,376.75 133.2,-161.13 319.9,-267.04 502.2,-369.34 -130,16.06 -263.1,6.2 -389.3,-28.92 24.3,6.75 109.7,-36.57 140.4,-41.12 48.4,-7.16 97.9,-7.81 146.5,-2.15 58.5,6.8 117.2,21.71 169.6,48.02 -13.7,-44.42 -20.5,-91.34 -22.2,-137.82 -1.9,-48.93 2.6,-98.15 13.5,-145.88 6.9,-30.26 56.7,-112.11 51.8,-136.82 25.2,128.52 24.8,261.99 -1.3,390.31 116.1,-173.79 236.1,-351.74 407.1,-472 -76.3,203.05 -249.5,351.38 -415.9,490.46" /></g><g
         transform="matrix(3.6109532,0,0,3.4296152,-33758.273,2041.1044)"
         id="g824"
         style="fill:#ffe6d5"><path
           id="path826"
           style="fill:#ffe6d5;fill-opacity:1;fill-rule:nonzero;stroke:none"
           d="m 16275.4,2333.71 c -90.8,30.88 -182.4,59.38 -274.7,85.47 -117.4,33.25 -238.3,62.82 -360.1,54.93 -134,-8.76 -260.7,-62.29 -381.9,-120.07 285.2,169.59 536.9,395.08 736.6,659.92 -298.6,-129.37 -532,-372.92 -737.1,-625.66 2.7,171.87 -64.5,343.78 -182.9,468.31 15.4,-16.21 9.2,-127.53 13.2,-154.68 7.9,-53.09 19.2,-105.61 33.8,-157.25 27.9,-98.88 80.1,-185.75 114.5,-280.04 -248.1,83.4 -584.5,-57.11 -785.3,-204.97 268.7,18.64 534.1,82.72 781.6,188.81 -314.5,-148.15 -605.4,-381.39 -738.2,-702.71 291.5,148.2 509.6,405.63 719.4,656.34 -195.7,-284.44 -269.2,-649.95 -198.7,-987.87 88.4,311.64 177,624.44 223,945.09 30,-357.72 66.1,-729.38 251.1,-1037 -43,333.61 -23.2,685.18 -142.2,996.1 144.3,-311.74 385.8,-578.08 682.9,-750.72 -198.1,322.39 -405.1,652.52 -711.5,874.48 162.5,-77.34 304.7,-191.52 463,-276.94 158.4,-85.48 345.6,-141.91 518.1,-90.75 -167.8,66.35 -321.1,164.12 -481,247.66 -160,83.53 -332.1,154.2 -512.5,159.33 147.2,71.24 315.6,86.05 479.1,81.11 163.5,-4.98 326.2,-28.41 489.8,-28.89" /></g><g
         transform="matrix(3.2431905,0,0,3.0803211,-33758.273,2041.1044)"
         id="g828"><path
           id="path830"
           style="fill:#513725;fill-opacity:1;fill-rule:nonzero;stroke:none"
           d="m 15232.5,2567.79 c 72.2,84.34 193.7,7.71 209.3,-131.97 0.8,71.24 1.7,142.53 2.5,213.83 91.8,15.73 183.6,31.42 275.3,47.15 4.9,-93.93 9.8,-187.85 14.7,-281.78 9.1,69.95 21,146.63 57.9,187.75 34.9,38.85 81.5,33.89 124,27.37 2.5,-79.32 5,-158.64 7.5,-237.97 57.4,115.54 128.5,234.52 221.2,247.35 57.8,7.97 117.6,-30.88 155.1,-100.99 -132.6,-149.37 -172.6,-427.49 -202.8,-680.33 -108.6,10.84 -217.4,17.57 -326.3,20.27 -100.5,2.47 -235,-40.47 -331.7,-4.1 -77.3,29.04 -74.4,149.59 -96.1,259.57 -7.4,36.97 -109.7,434.88 -110.6,433.85" /></g><g
         transform="matrix(3.2302577,0,0,3.0680378,-33758.273,2041.1044)"
         id="g832"><path
           id="path834"
           style="fill:#66442d;fill-opacity:1;fill-rule:nonzero;stroke:none"
           d="m 15277.7,2024.76 c 53.8,50.8 113.5,85.91 175.2,103.01 22.7,-64.11 38.3,-134.39 45.9,-206.84 17.6,7.2 35.3,14.4 52.9,21.54 -7.4,130.12 -22.9,259.1 -46.4,384.35 82.4,26.02 165.9,44.09 249.8,54.05 17.5,-153.55 35.1,-307.09 52.6,-460.64 28.3,106.1 50.7,216.2 66.7,328.52 56.4,-9.53 112.2,-27.38 166.4,-53.19 0.5,-85.21 0.9,-170.48 1.3,-255.74 36.6,50.74 74.2,102.52 119.6,130.06 45.4,27.49 101.1,26.08 138.3,-23.48 -60.2,-210.52 -104.9,-431.96 -133,-658.6 -2,-16.5 -4.5,-34.35 -12.7,-45.07 -7.6,-9.9 -18.2,-11.09 -28.1,-11.09 -93.7,-0.16 -182.1,62.98 -272.8,101.07 -91.9,38.68 -187.2,51.72 -282,64.65 -71.2,9.68 -160,-11.74 -204.3,87.65 -14.1,31.7 -94.1,435.31 -89.4,439.75" /></g><g
         transform="matrix(3.2354833,0,0,3.0730009,-33758.273,2041.1044)"
         id="g836"><path
           id="path838"
           style="fill:#7f5737;fill-opacity:1;fill-rule:nonzero;stroke:none"
           d="m 15332.9,1728.83 c 18.9,5.03 38.2,10 57.1,4.38 59.8,-17.88 86.3,-127.15 102.2,-220.06 0.6,71.62 1.2,143.25 1.8,214.87 87.6,18.21 175.3,36.41 262.9,54.67 1.3,-80.11 8.2,-159.94 20.5,-237.67 21,80.59 38.9,163.18 53.5,247.23 41,-11.4 82.9,-14.42 124.3,-8.97 0.6,-93.83 1.1,-187.7 1.6,-281.58 63.2,186.84 247.1,231.94 343.2,84.21 -112,-205.32 -149.5,-482.96 -205.3,-739.211 -4.8,-22.037 -10.5,-45.536 -22.8,-58.445 -11.8,-12.478 -27.2,-12.153 -41.5,-11.398 -133.6,7.24 -267.1,14.532 -400.7,21.769 -94.8,5.132 -226.8,-10.263 -292,125.695 -40.7,84.75 -27.2,196.83 -32.3,295.95 -9.2,177.77 -64.8,311.14 -109.1,469.24 43.9,19.07 91.2,27.39 136.6,39.32" /></g><g
         transform="matrix(3.2138821,0,0,3.0524845,-33758.273,2041.1044)"
         id="g840"><path
           id="path842"
           style="fill:#95693f;fill-opacity:1;fill-rule:nonzero;stroke:none"
           d="m 16300,728.948 h -3.4 c 0.6,-2.719 1.7,0.272 3.4,0" /></g><g
         transform="matrix(3.2143364,0,0,3.0529161,-33758.273,2041.1044)"
         id="g844"><path
           id="path846"
           style="fill:#95693f;fill-opacity:1;fill-rule:nonzero;stroke:none"
           d="m 16297.8,728.844 h -0.1 c 2.3,-0.325 2.1,1.958 0.1,0" /></g><g
         transform="matrix(3.2132179,0,0,3.0518537,-33758.273,2041.1044)"
         id="g848"><path
           id="path850"
           style="fill:#95693f;fill-opacity:1;fill-rule:nonzero;stroke:none"
           d="m 16299.7,729.099 h 0.3 -0.3" /></g><g
         transform="matrix(3.2296286,0,0,3.0674403,-33758.273,2041.1044)"
         id="g852"><path
           id="path854"
           style="fill:#95693f;fill-opacity:1;fill-rule:nonzero;stroke:none"
           d="m 16300,1174.22 c -27.7,27.7 -55.3,55.35 -83,83.01 -9.9,9.95 -20.1,20.13 -31.7,24.08 -9,3.08 -18.4,2.27 -27.5,0.16 -46.2,-10.5 -87.8,-51.84 -121,-103.74 -33.1,-51.89 -58.9,-114.12 -84.4,-175.87 9.8,109.47 38.7,214.57 82.8,300.44 -34.9,27.12 -71,50.44 -108,69.7 -10.8,5.63 -21.8,10.93 -33.1,10.99 -14.9,0.05 -29.3,-8.99 -42.6,-19.59 -87.8,-69.54 -146.8,-204.77 -192.2,-342.27 4.5,75.11 5,150.76 1.6,225.98 -57.2,-0.22 -114.4,-0.44 -171.7,-0.65 -0.2,-65.86 -1.7,-131.77 -4.5,-197.52 -39.3,90.21 -86.1,172.25 -138.8,243.25 -4.9,6.54 -10.1,13.2 -16.4,15.36 -6.5,2.27 -13.2,-0.7 -19.6,-3.68 -38.2,-17.91 -75.9,-38.2 -113.1,-60.77 57.2,-61.2 79.4,-175.22 97.7,-280.36 13.6,-78.032 27.2,-156.66 31.3,-237.344 h 890.9 c -19.6,147.352 13.2,346.874 83.3,448.824" /></g><g
         transform="matrix(3.2131655,0,0,3.0518039,-33758.273,2041.1044)"
         id="g856"><path
           id="path858"
           style="fill:#95693f;fill-opacity:1;fill-rule:nonzero;stroke:none"
           d="m 16300,729.111 h -0.2 0.2" /></g><g
         transform="matrix(3.249185,0,0,3.0860146,-33758.273,2041.1044)"
         id="g860"
         style="fill:#e9ddaf"><path
           id="path862"
           style="fill:#e9ddaf;fill-opacity:1;fill-rule:nonzero;stroke:none"
           d="m 15574.3,1477.93 c 25.3,103.49 47.9,207.68 67.8,312.4 25.3,133.23 46.2,269.96 25.6,404 -22.8,147.49 -94.5,282.5 -170.3,411 215.6,-299.07 489.9,-555.69 802.6,-750.88 -172.4,317.99 -464.9,552.45 -764.7,754.86 190.5,13.87 374.3,104.99 500.5,248.28 -16.4,-18.66 -140.3,-22.64 -169.9,-29.74 -58,-13.93 -115.1,-31.58 -170.8,-52.77 -106.8,-40.61 -197.8,-106.88 -298.8,-154.21 68,282.76 -120.4,641.53 -303.7,849.31 46.9,-295.62 143.8,-583.17 285.4,-846.84 -194.7,333.71 -481.4,632.93 -850.1,748.52 192.6,-308.15 498.9,-524.38 796.9,-732.16 -333.9,188.74 -745.8,234.35 -1113,123.28 353.6,-67.34 708.6,-134.85 1068.1,-154.37 -393.1,-68.15 -801,-144.48 -1123.5,-379.42 365.2,80.25 756.3,92.67 1088.8,254.9 -330.9,-190.36 -602.2,-483.66 -764.2,-829.52 337.5,250.87 682.7,512.33 898.5,873.25 -69.8,-187.45 -182.3,-356.03 -261.3,-539.71 -79.1,-183.69 -123.4,-396.36 -49.8,-582.36 57,192.24 150.2,371.46 227.1,556.7 76.8,185.3 138.2,382.7 126.3,582.9 93.2,-155.98 126.1,-340.96 136.6,-522.44 10.5,-181.48 0.5,-363.88 15.9,-544.98" /></g></g></g></svg>
